<svg xmlns="http://www.w3.org/2000/svg" width="107.728" height="93.993" viewBox="0 0 107.728 93.993">
    <g id="febi_Logo_White" data-name="febi Logo White" transform="translate(-3.8 -5.5)">
        <path id="Pfad_491" data-name="Pfad 491" d="M77.407,81.038v1.5h.215a3.046,3.046,0,0,1,3-1.717c3,0,3.863,2.146,3.863,4.721V92.2H82.557V85.974c0-1.717-.215-3.434-2.361-3.434-2.79,0-2.79,2.575-2.79,4.507v5.365H75.475V81.252h1.931v-.215Zm-6.652-5.365a1.237,1.237,0,0,1,1.288,1.288,1.385,1.385,0,0,1-1.288,1.288,1.288,1.288,0,0,1,0-2.575Zm.858,5.365V92.2H69.681V81.038Zm-4.721,6.223h-8.8a3.617,3.617,0,0,0,3.648,3.648c1.5,0,2.575-.858,3.434-2.361l1.717,1.073c-1.288,1.931-3,3.219-5.15,3.219a5.465,5.465,0,0,1-5.58-5.794c0-3.434,1.931-6.009,5.365-6.009,3.648-.215,5.365,2.79,5.365,6.223Zm-13.52-4.507V92.2H51.44V82.755H50.153V81.038H51.44V77.175h1.931v3.863H55.3v1.717Zm-5.365,0-1.5,1.073a1.7,1.7,0,0,0-1.717-1.073A1.237,1.237,0,0,0,43.5,84.042c0,1.073,1.288,1.5,2.361,1.931a3.466,3.466,0,0,1,2.575,3.219,3.67,3.67,0,0,1-3.863,3.648,4.5,4.5,0,0,1-4.077-2.79l1.717-.644c.644,1.073.858,1.717,2.361,1.717a1.693,1.693,0,0,0,1.717-1.717c0-2.575-4.936-1.5-4.936-5.15a3.16,3.16,0,0,1,3.219-3.219,3.3,3.3,0,0,1,3.434,1.717ZM38.35,74.6V92.411H36.419V74.6ZM31.7,75.673a1.237,1.237,0,0,1,1.288,1.288A1.288,1.288,0,1,1,31.7,75.673Zm1.073,5.365V92.2H30.839V81.038ZM16.461,92.2V74.385h1.931V82.54a5.216,5.216,0,0,1,3.863-1.931c3.434,0,5.365,2.575,5.365,6.009,0,3-1.931,6.009-5.365,6.009a6.073,6.073,0,0,1-3.863-1.931v1.5H16.461Zm5.58-9.657a3.86,3.86,0,0,0-3.648,4.077c0,2.146,1.288,4.292,3.648,4.292S25.9,88.978,25.9,86.617a3.9,3.9,0,0,0-3.863-4.077Zm36.052,3h6.652a3.428,3.428,0,0,0-3.219-2.79,3.254,3.254,0,0,0-3.434,2.79ZM39.423,46.488H26.976c.215-8.584,12.661-8.584,12.447,0ZM3.8,99.493V53.355H7.877V95.416H93.716V32.754H84.488V71.81H16.461V53.355h2.575c.644,10.3,8.584,15.451,16.309,15.236a15.915,15.915,0,0,0,12.017-6.223l-5.58-4.507c-6.652,6.223-15.022,1.931-15.022-4.292H47.148c1.5-28.327-27.254-24.249-28.327-6.867H16.461V40.265c0-3,0-21.674,22.747-21.674V10.007c-16.524,0-31.116,10.944-31.116,30.043v6.438H3.8V40.05C3.8,19.449,19.251,5.5,39.208,5.5h58.37V99.279H3.8v.215ZM50.367,50.565c0,10.515,6.009,17.812,16.309,17.812,10.086,0,15.236-7.082,15.236-17.812,0-10.944-4.077-17.811-15.236-17.811a15.032,15.032,0,0,0-7.725,1.931s-.215-15.88-.215-16.095H50.367V50.565ZM89.209,20.307a5.222,5.222,0,0,0-5.15,5.15,5.413,5.413,0,0,0,5.15,5.365,5.259,5.259,0,0,0,0-10.515ZM58.951,50.565c0-4.936,1.717-10.086,7.725-10.086s7.511,5.15,7.511,10.086-1.5,10.515-7.511,10.515S58.951,55.5,58.951,50.565Z" transform="translate(0)" fill="#fff"/>
        <path id="Pfad_492" data-name="Pfad 492" d="M54.565,8.719c.644,0,1.288,0,1.288.858s-1.073.644-1.931.644h-.858v-1.5Zm.644,2.146a1.356,1.356,0,0,0,1.5-1.5c0-1.288-.858-1.5-1.931-1.5H52.419v5.794h.644v-2.79h1.073l1.5,2.575H56.5l-1.288-2.575ZM54.35,6.358a4.292,4.292,0,1,1-4.292,4.292A4.3,4.3,0,0,1,54.35,6.358Zm0,9.442a5.084,5.084,0,0,0,5.15-5.15,5.15,5.15,0,0,0-10.3,0,5.084,5.084,0,0,0,5.15,5.15Z" transform="translate(52.027)" fill="#fff"/>
    </g>
</svg>